<svg viewBox="0 0 24 24" xml:space="preserve" xmlns:xlink="http://www.w3.org/1999/xlink" xmlns="http://www.w3.org/2000/svg"><defs><radialGradient id="e" cx="228.4" cy="273.52" r="12.374" gradientTransform="translate(102.6 124.31)scale(.4457)" gradientUnits="userSpaceOnUse" xlink:href="#a"/><radialGradient id="c" cx="353.38" cy="147.48" r="44.017" gradientTransform="matrix(1 0 0 .0763 -31.41 -105.17)" gradientUnits="userSpaceOnUse" xlink:href="#a"/><linearGradient id="a"><stop stop-color="#fff" stop-opacity=".804" offset="0"/><stop stop-color="#fff" stop-opacity="0" offset="1"/></linearGradient></defs><path d="M11.8 2c-.2 0-.4.1-.5.2L9.9 3.5l-1.6-.3c-.5-.1-.8.2-.9.6l-.3 1.8-1.7.8c-.4.2-.5.6-.3 1L5.9 9l-.8 1.6c-.2.4 0 .8.3 1l1.7.8.3 1.8c.1.4.5.7.9.6l1.9-.3 1.4 1.3c.3.3.8.3 1.1 0l1.4-1.3 1.9.3c.4.1.8-.2.9-.6l.3-1.8 1.7-.8c.4-.2.5-.6.3-1L18.1 9l.8-1.6c.2-.4.1-.8-.3-1l-1.7-.8-.3-1.8c-.1-.4-.5-.7-.9-.6l-1.9.3-1.4-1.3c-.1-.2-.4-.2-.6-.2M6.1 13.1 3 19.3l3.6-.5L8.4 22l2.6-5.3-.2-.2-1-.9-1.4.2c-.9.1-1.8-.5-2-1.4zm11.8 0-.3 1.3c-.2.8-.9 1.4-1.7 1.4h-.2l-1.4-.2-1 .9-.2.2 2.6 5.3 1.8-3.1 3.6.5z"/><path style="fill:none" d="M0 0h24v24H0z"/><path d="m9.82 6.008 1.062-.653c.087-.054.131-.06.191-.05-.002-.058.04-.128.113-.173l1.005-.624c.067-.041.133-.039.177 0l1.094.95c.056.06.04.109.013.158.067-.018.141-.018.207.04l1.085.94c.062.055.071.163.054.225.046-.03.151-.022.21.032l1.14 1.03c.043.039.06.112.015.208l-.503 1.027c-.014.024-.025.029-.057.047.036-.002.026.047.012.078l-.392.796a.25.25 0 0 1-.107.097c.032.003.038.036.023.065l-.309.658a.3.3 0 0 1-.08.105l-.88.65c-.014.005-.028.03-.054.002.004.043-.02.066-.055.1l-.544.433-3.977-1.967.428-3.962c.015-.138.073-.178.13-.212Z" style="stroke-width:.0190607"/><g transform="translate(7.246 4.293)scale(.01906)"><use transform="translate(-8.485 -93.338)" xlink:href="#b"/><use transform="translate(60.81 -143.54)" xlink:href="#b"/><use transform="translate(131.52 -78.49)" xlink:href="#b"/><use transform="translate(205.06 -12.728)" xlink:href="#b"/><use transform="translate(135.06 40.305)" xlink:href="#b"/><path id="d" fill="url(#c)" d="M277.95-100.1h88.035v12.374H277.95Z" transform="rotate(41.302)" opacity=".7" style="fill:url(#c)"/><use transform="rotate(2.44 -2534.14 413.875)" opacity=".5" xlink:href="#d"/><use transform="translate(76.5 67)" opacity=".5" xlink:href="#d"/><use transform="translate(-69.5 -65)" opacity=".3" xlink:href="#d"/><use transform="translate(-138 -15)" opacity=".4" xlink:href="#d"/><use transform="matrix(.422 .6908 -.857 .093 325.97 91.613)" opacity=".9" xlink:href="#d"/></g><g opacity=".7"><path fill="#2ac44b" d="m16.1 8.182-.42.856a.4.4 0 0 1-.082.1l-.716.526c-.04.03-.058-.006-.03-.066l.275-.653a.4.4 0 0 1 .095-.141l.826-.64c.045-.036.073-.024.053.018z"/><path fill="#fff" d="m14.908 9.115-.369.79a.24.24 0 0 1-.071.075l-.87.684c-.052.042-.06-.01-.034-.07l.268-.633a.3.3 0 0 1 .092-.13l.907-.709c.043-.034.096-.047.077-.007m.693.133-.362.74a.2.2 0 0 1-.052.07l-.79.594c-.06.046-.067.018-.037-.044l.309-.642a.3.3 0 0 1 .087-.123l.785-.596c.042-.032.078-.037.06.001"/><path fill="#ffff25" d="m14.438 10.154-.34.725c-.014.029-.047.053-.11.104l-.867.699.275-.712a.3.3 0 0 1 .097-.129l.861-.68c.042-.033.101-.046.083-.007zm-.443 1.002-.203.478a.12.12 0 0 1-.042.06l-.64.5-.307-.171 1.122-.893c.063-.05.081 0 .07.026"/><path fill="#ff6031" d="m15.104 10.237-.304.633a.6.6 0 0 1-.11.105l-.728.536c-.024.012-.042.016-.026-.014l.262-.572a.4.4 0 0 1 .101-.125l.742-.563c.04-.03.08-.036.063 0"/></g><path fill="#ffff25" d="m11.286 5.165.978-.619c.037-.023.07-.01.093.009l.96.825c.038.034.036.097-.008.12l-.922.615c-.033.022-.1.024-.128 0l-.98-.86c-.028-.023-.023-.067.007-.09m2.69 2.391.878-.664c.034-.026.116-.018.139.002l1.042.925c.027.023.04.1.012.124l-.893.662c-.03.024-.125.024-.16-.007l-1.032-.93c-.027-.024-.016-.09.014-.112"/><path fill="#2ac44b" d="m12.64 6.366.907-.62c.036-.025.118-.021.14-.002l.966.836c.044.038.041.113.011.134l-.885.638c-.062.044-.126.028-.173-.014l-.97-.874c-.027-.024-.026-.077.005-.098m-2.689-.344.997-.622c.06-.04.119-.03.162.008l.918.816c.05.044.052.134.001.17l-.907.63c-.062.043-.157.024-.204-.019l-.949-.877c-.026-.024-.049-.086-.018-.106m1.382 1.21.933-.64c.035-.024.115-.02.136-.002l.946.827c.082.072.079.17.03.207l-1.067.767-1.006-1.008c-.053-.053-.014-.123.028-.152m1.41 1.29.93-.688c.033-.025.114-.02.135-.001l1.007.925c.042.039.04.11.011.132l-.932.723c-.059.046-.124.029-.17-.013l-.986-.922c-.048-.044-.042-.122.004-.156z"/><path d="M13.278 11.492c-.022-.108-.066-.21-.066-.21s.078-.072.038-.252l-.597-2.695c-.04-.181-.098-.302-.33-.39L8.954 6.67a.34.34 0 0 0-.3.004l-1.056.654c-.077.048-.157.124-.083.352l.362 1.115c.03.09.17.137.17.137s-.095.075-.046.225l.365 1.123c.016.073.107.117.107.117s-.07.028-.034.138l.3.912c.031.094.058.2.158.26l.877.52c.093.053.112-.029.112-.029s-.01.07.09.135l.963.572c.136.08.209-.024.209-.024s-.054.081.1.172l.947.553c.087.051.165.042.245-.022l1.006-.799c.065-.052.08-.086.05-.243z" style="stroke-width:.0190607"/><g transform="translate(7.246 4.293)scale(.01906)"><path id="b" fill="url(#e)" d="M209.92 246.22a5.517 5.517 0 1 1-5.521-5.516c3.04 0 5.51 2.47 5.51 5.516z" style="fill:url(#e)"/><use transform="translate(-110.31 26.163)" opacity=".6" xlink:href="#b"/><use transform="translate(24.395 85.56)" opacity=".9" xlink:href="#b"/><use transform="translate(-87.328 102.53)" opacity=".4" xlink:href="#b"/><use transform="translate(-26.163 135.76)" opacity=".5" xlink:href="#b"/><use transform="translate(42.426 167.58)" opacity=".6" xlink:href="#b"/><use transform="translate(-71.064 -30.052)" xlink:href="#b"/><use transform="translate(-134.7 -56.57)" xlink:href="#b"/><use transform="translate(-45.255 53.74)" opacity=".6" xlink:href="#b"/><use transform="matrix(.7888 -.3843 .182 .8914 -161.14 195.7)" opacity=".3" xlink:href="#d"/><use transform="matrix(.7953 -.3706 .1664 .8944 -94.038 217.84)" opacity=".4" xlink:href="#d"/><use transform="matrix(.7888 -.3843 .182 .8914 -222.25 169.45)" opacity=".2" xlink:href="#d"/></g><g opacity=".9"><path fill="#f03031" d="m12.507 8.385.233 1.092c.015.07-.007.184-.05.216l-.97.71c-.107.077-.165-.003-.179-.058l-.287-1.152c-.025-.098.033-.167.082-.2l.993-.67c.051-.034.156-.039.178.062"/><path fill="#2ac44b" d="m12.89 9.989.232 1.077a.25.25 0 0 1-.068.2l-.872.672c-.067.053-.19.051-.208-.025l-.262-1.104c-.023-.094.043-.18.089-.214l.924-.655c.061-.046.144-.046.165.049"/><path fill="#ffff25" d="m13.225 11.55.22 1.019c.015.065-.01.149-.05.18l-.878.695c-.097.077-.155.04-.174-.034l-.246-1.042c-.024-.092.052-.154.096-.187l.87-.67c.06-.045.142-.055.162.039"/></g><path fill="#355ee5" d="m10.059 8.267.973-.684c.058-.038.15-.03.221.001l.982.382c.065.029.069.092.023.123l-1.03.69a.23.23 0 0 1-.233.026l-.914-.37c-.087-.04-.105-.112-.022-.168"/><path fill="#ffff25" d="m8.806 7.753.96-.642c.057-.037.14-.03.21-.002l.821.312c.092.036.057.1.012.131l-.951.647c-.08.054-.162.074-.228.044l-.83-.326c-.085-.038-.095-.099.006-.164"/><path fill="#f03031" d="m7.695 7.33.95-.597a.27.27 0 0 1 .24-.03l.663.26c.09.036.067.094.023.123l-.966.62c-.08.05-.124.051-.19.023l-.757-.308c-.052-.022-.01-.062.037-.09z"/><g opacity=".8"><path fill="#f03031" d="m10.451 10.41.262 1.029c.017.067.076.137.172.182l.824.388c.082.039.163.06.12-.105l-.262-1.03c-.025-.096-.096-.125-.148-.15l-.86-.413c-.055-.026-.137-.016-.108.098z"/><path fill="#fff" d="m9.908 8.766.309 1.037c.019.066.056.15.182.207l.836.38c.081.038.149.045.105-.116l-.278-1.072c-.025-.094-.051-.15-.138-.185l-.91-.394q-.166-.067-.106.143"/><path fill="#355ee5" d="m10.875 11.947.217.798c.017.064.047.195.134.247l.876.508c.073.044.109-.04.075-.169l-.23-.888a.28.28 0 0 0-.138-.17l-.85-.419c-.079-.042-.112-.015-.083.093zM8.71 8.296l.297.945c.02.062.073.18.193.235l.72.331c.076.036.145.027.099-.125l-.281-.935c-.027-.088-.062-.193-.144-.229l-.77-.331c-.104-.045-.157-.023-.115.109z"/><path fill="#2ac44b" d="m7.587 7.794.288.894c.028.105.05.154.126.192l.706.3c.097.032.094-.023.049-.171l-.249-.831c-.026-.087-.078-.181-.158-.215l-.65-.275c-.102-.043-.152-.023-.111.106z"/><path fill="#ff6031" d="m9.243 9.883.258.887c.018.062.062.13.179.193l.717.382c.075.04.111.006.086-.09l-.236-.919c-.023-.09-.04-.173-.121-.211l-.782-.379c-.112-.054-.14.003-.101.137"/><path fill="#355ee5" d="m8.083 9.277.288.927c.025.104.049.137.164.191l.64.315c.073.035.1-.002.071-.104l-.269-.952c-.025-.086-.07-.178-.149-.213l-.684-.327c-.086-.037-.103.036-.061.163"/><path fill="#fff" d="m9.62 11.342.242.806c.018.061.076.127.187.193l.713.417c.071.042.126.019.101-.075l-.23-.875c-.024-.088-.047-.157-.124-.198l-.786-.41c-.15-.08-.144.002-.103.142"/><path fill="#ffff25" d="m8.524 10.694.255.79a.32.32 0 0 0 .155.203l.69.405c.072.043.12 0 .095-.09l-.265-.846a.28.28 0 0 0-.145-.184l-.707-.397c-.106-.06-.118-.01-.078.12z"/></g></svg>